<?xml version="1.0" encoding="UTF-8"?>
<svg width="16px" height="16px" version="1.1" viewBox="0 0 16 16" xmlns="http://www.w3.org/2000/svg">
 <g transform="rotate(90,8,8)">
  <path d="m6 12.064v-8.128h9v8.128z" fill="#1a1a1a" fill-opacity=".2" stroke-width="1.296"/>
  <path d="m0 10.215c0 1.527 1.3555 2.7852 3 2.7852h10c1.6445 0 3-1.2582 3-2.7852v-4.4296c0-1.527-1.3555-2.7852-3-2.7852h-10c-1.6445 0-3 1.2582-3 2.7852zm1 0v-4.4296c0-0.96673 0.90035-1.7852 2-1.7852h10c1.1 0 2 1.0836 2 1.7852v4.4296c0 0.7852-0.9 1.7851-2 1.7851h-10c-1.0997 0-2-0.68588-2-1.7851z" fill="#808080"/>
 </g>
</svg>
